<?xml version="1.0" encoding="UTF-8" standalone="no"?>
<!DOCTYPE svg PUBLIC "-//W3C//DTD SVG 1.1//EN" "http://www.w3.org/Graphics/SVG/1.1/DTD/svg11.dtd">
<svg width="100%" height="100%" viewBox="0 0 1024 1024" version="1.1" xmlns="http://www.w3.org/2000/svg" xmlns:xlink="http://www.w3.org/1999/xlink" xml:space="preserve" xmlns:serif="http://www.serif.com/" style="fill-rule:evenodd;clip-rule:evenodd;stroke-linejoin:round;stroke-miterlimit:2;">
    <g transform="matrix(1,0,0,1,16.9286,-1.05442)">
        <g transform="matrix(1.19037,0,0,1.19037,-82.3315,-31.7219)">
            <path d="M525.461,537.253C581.109,405.104 675.01,428.129 715.58,449.115C769.799,477.162 811.014,578.723 760.451,665.9C708.351,755.727 630.843,817.564 528.109,878.972C425.375,817.564 302.095,725.451 254.152,633.338C185.662,510.521 178.705,434.468 247.194,373.059C315.684,311.651 462.689,315.589 525.461,537.253Z" style="fill:rgb(255,105,107);"/>
            <clipPath id="_clip1">
                <path d="M525.461,537.253C581.109,405.104 675.01,428.129 715.58,449.115C769.799,477.162 811.014,578.723 760.451,665.9C708.351,755.727 630.843,817.564 528.109,878.972C425.375,817.564 302.095,725.451 254.152,633.338C185.662,510.521 178.705,434.468 247.194,373.059C315.684,311.651 462.689,315.589 525.461,537.253Z"/>
            </clipPath>
            <g clip-path="url(#_clip1)">
                <g transform="matrix(1,0,0,1,-2,1)">
                    <path d="M527.512,536.283C527.512,536.283 561.145,633.825 529.134,715.397C485.333,827.013 530.828,881.807 530.828,881.807C530.828,881.807 867.841,715.583 781.163,511.27C694.484,306.958 523.457,435.919 527.512,536.283Z" style="fill:rgb(79,189,255);"/>
                </g>
            </g>
        </g>
        <g transform="matrix(1.19037,0,0,1.19037,-19.8983,-24.9111)">
            <circle cx="320.974" cy="181.792" r="122.383" style="fill:rgb(255,254,207);"/>
        </g>
        <g transform="matrix(0.942091,0.150183,-0.150183,0.942091,448.603,121.415)">
            <circle cx="320.974" cy="181.792" r="122.383" style="fill:rgb(255,254,207);"/>
        </g>
        <g transform="matrix(1.19037,0,0,1.19037,-82.3315,-31.7219)">
            <path d="M479.357,121.081C479.357,121.081 406.002,164.222 344.908,153.298C344.908,153.298 345.972,209.388 278.288,349.178C210.603,488.969 223.499,571.826 223.499,571.826C223.499,571.826 135.264,397.465 173.438,243.043C206.121,110.831 291.268,27.729 369.418,37.042C447.569,46.356 479.357,121.081 479.357,121.081Z" style="fill:rgb(61,28,41);"/>
        </g>
        <g transform="matrix(1.17553,0.187396,-0.187396,1.17553,25.2453,-141.156)">
            <path d="M700.594,388.458C700.594,388.458 808.667,297.249 749.98,224.795C691.293,152.342 670.687,182.687 670.687,182.687C670.687,182.687 613.771,129.6 545.052,191.402C506.047,226.481 493.414,205.832 493.414,205.832C493.414,205.832 473.96,299.234 578.409,248.84C682.858,198.447 742.792,320.809 700.594,388.458Z" style="fill:rgb(61,28,41);"/>
        </g>
    </g>
</svg>
